<svg id="visual" viewBox="0 0 960 540" width="960" height="540" xmlns="http://www.w3.org/2000/svg" xmlns:xlink="http://www.w3.org/1999/xlink" version="1.1"><rect x="0" y="0" width="960" height="540" fill="#001220"></rect><path d="M0 345L22.8 345.8C45.7 346.7 91.3 348.3 137 354.3C182.7 360.3 228.3 370.7 274 367.7C319.7 364.7 365.3 348.3 411.2 339.3C457 330.3 503 328.7 548.8 335.2C594.7 341.7 640.3 356.3 686 358.2C731.7 360 777.3 349 823 347.5C868.7 346 914.3 354 937.2 358L960 362L960 541L937.2 541C914.3 541 868.7 541 823 541C777.3 541 731.7 541 686 541C640.3 541 594.7 541 548.8 541C503 541 457 541 411.2 541C365.3 541 319.7 541 274 541C228.3 541 182.7 541 137 541C91.3 541 45.7 541 22.8 541L0 541Z" fill="#fa7268"></path><path d="M0 428L22.8 423C45.7 418 91.3 408 137 399C182.7 390 228.3 382 274 382.5C319.7 383 365.3 392 411.2 395.7C457 399.3 503 397.7 548.8 398.5C594.7 399.3 640.3 402.7 686 396.5C731.7 390.3 777.3 374.7 823 371.8C868.7 369 914.3 379 937.2 384L960 389L960 541L937.2 541C914.3 541 868.7 541 823 541C777.3 541 731.7 541 686 541C640.3 541 594.7 541 548.8 541C503 541 457 541 411.2 541C365.3 541 319.7 541 274 541C228.3 541 182.7 541 137 541C91.3 541 45.7 541 22.8 541L0 541Z" fill="#ef5f67"></path><path d="M0 422L22.8 423.8C45.7 425.7 91.3 429.3 137 429C182.7 428.7 228.3 424.3 274 426.8C319.7 429.3 365.3 438.7 411.2 442.7C457 446.7 503 445.3 548.8 436.5C594.7 427.7 640.3 411.3 686 412.7C731.7 414 777.3 433 823 433.7C868.7 434.3 914.3 416.7 937.2 407.8L960 399L960 541L937.2 541C914.3 541 868.7 541 823 541C777.3 541 731.7 541 686 541C640.3 541 594.7 541 548.8 541C503 541 457 541 411.2 541C365.3 541 319.7 541 274 541C228.3 541 182.7 541 137 541C91.3 541 45.7 541 22.8 541L0 541Z" fill="#e34c67"></path><path d="M0 451L22.8 451C45.7 451 91.3 451 137 453.3C182.7 455.7 228.3 460.3 274 465.7C319.7 471 365.3 477 411.2 475.3C457 473.7 503 464.3 548.8 459.3C594.7 454.3 640.3 453.7 686 454C731.7 454.3 777.3 455.7 823 454.7C868.7 453.7 914.3 450.3 937.2 448.7L960 447L960 541L937.2 541C914.3 541 868.7 541 823 541C777.3 541 731.7 541 686 541C640.3 541 594.7 541 548.8 541C503 541 457 541 411.2 541C365.3 541 319.7 541 274 541C228.3 541 182.7 541 137 541C91.3 541 45.7 541 22.8 541L0 541Z" fill="#d53867"></path><path d="M0 497L22.8 495.8C45.7 494.7 91.3 492.3 137 494.3C182.7 496.3 228.3 502.7 274 503.5C319.7 504.3 365.3 499.7 411.2 497C457 494.3 503 493.7 548.8 496.7C594.7 499.7 640.3 506.3 686 509.8C731.7 513.3 777.3 513.7 823 513.2C868.7 512.7 914.3 511.3 937.2 510.7L960 510L960 541L937.2 541C914.3 541 868.7 541 823 541C777.3 541 731.7 541 686 541C640.3 541 594.7 541 548.8 541C503 541 457 541 411.2 541C365.3 541 319.7 541 274 541C228.3 541 182.7 541 137 541C91.3 541 45.7 541 22.8 541L0 541Z" fill="#c62368"></path></svg>