<svg id="visual" viewBox="0 0 900 600" width="900" height="600" xmlns="http://www.w3.org/2000/svg" xmlns:xlink="http://www.w3.org/1999/xlink" version="1.1"><rect x="0" y="0" width="900" height="600" fill="#fff"></rect><path d="M0 435L21.5 433.7C43 432.3 86 429.7 128.8 434.3C171.7 439 214.3 451 257.2 453.8C300 456.7 343 450.3 385.8 456.3C428.7 462.3 471.3 480.7 514.2 480.3C557 480 600 461 642.8 463.7C685.7 466.3 728.3 490.7 771.2 487.5C814 484.3 857 453.7 878.5 438.3L900 423L900 601L878.5 601C857 601 814 601 771.2 601C728.3 601 685.7 601 642.8 601C600 601 557 601 514.2 601C471.3 601 428.7 601 385.8 601C343 601 300 601 257.2 601C214.3 601 171.7 601 128.8 601C86 601 43 601 21.5 601L0 601Z" fill="#e2edff" stroke-linecap="round" stroke-linejoin="miter"></path></svg>