<?xml version="1.0" standalone="no"?>
<svg viewBox="0 0 200 200" xmlns="http://www.w3.org/2000/svg">
  <path fill="#7F72F0" d="M45.8,-79.9C58.9,-71.9,68.6,-58.6,70.8,-44.4C72.9,-30.2,67.4,-15.1,61.8,-3.3C56.2,8.6,50.3,17.1,44.9,25.5C39.4,33.9,34.2,42.1,26.8,39.1C19.3,36.1,9.7,21.9,-2.8,26.8C-15.3,31.7,-30.7,55.7,-43.8,62C-56.8,68.3,-67.6,56.8,-76.2,43.5C-84.7,30.2,-91,15.1,-83.7,4.2C-76.4,-6.7,-55.5,-13.3,-41.8,-17.7C-28.1,-22,-21.6,-24,-15.8,-36.3C-10,-48.5,-5,-71,5.7,-80.9C16.4,-90.7,32.8,-87.9,45.8,-79.9Z" transform="translate(100 100)" />
</svg>
