<?xml version="1.0" encoding="UTF-8"?>
<!DOCTYPE svg PUBLIC "-//W3C//DTD SVG 1.1//EN" "http://www.w3.org/Graphics/SVG/1.1/DTD/svg11.dtd">
<svg xmlns="http://www.w3.org/2000/svg" version="1.1" width="1920px" height="1080px" style="shape-rendering:geometricPrecision; text-rendering:geometricPrecision; image-rendering:optimizeQuality; fill-rule:evenodd; clip-rule:evenodd" xmlns:xlink="http://www.w3.org/1999/xlink">
<g><path style="opacity:0.932" fill="#002E74" d="M 134.5,313.5 C 318.834,313.333 503.167,313.5 687.5,314C 689.286,314.785 690.786,315.951 692,317.5C 693.163,378.252 693.663,439.085 693.5,500C 693.663,560.915 693.163,621.748 692,682.5C 690.421,684.041 688.587,685.208 686.5,686C 610.501,686.5 534.501,686.667 458.5,686.5C 458.5,707.167 458.5,727.833 458.5,748.5C 486.502,748.333 514.502,748.5 542.5,749C 551.328,754.496 551.661,760.496 543.5,767C 455.5,767.667 367.5,767.667 279.5,767C 273.533,763.608 272.033,758.774 275,752.5C 276.214,750.951 277.714,749.785 279.5,749C 307.831,748.5 336.165,748.333 364.5,748.5C 364.5,727.833 364.5,707.167 364.5,686.5C 288.499,686.667 212.499,686.5 136.5,686C 133.461,684.969 130.961,683.135 129,680.5C 128.333,560.5 128.333,440.5 129,320.5C 130.666,318.004 132.5,315.671 134.5,313.5 Z M 147.5,332.5 C 323.167,332.5 498.833,332.5 674.5,332.5C 674.5,443.833 674.5,555.167 674.5,666.5C 498.93,666.167 323.43,666.501 148,667.5C 147.5,555.834 147.333,444.167 147.5,332.5 Z M 382.5,687.5 C 401.326,686.503 420.326,686.17 439.5,686.5C 439.5,707.167 439.5,727.833 439.5,748.5C 420.497,748.667 401.497,748.5 382.5,748C 383.831,727.736 383.831,707.569 382.5,687.5 Z"/></g>
<g><path style="opacity:0.927" fill="#002E74" d="M 933.5,391.5 C 939.833,391.5 946.167,391.5 952.5,391.5C 952.167,432.839 952.5,474.172 953.5,515.5C 978.983,492.518 1004.32,469.351 1029.5,446C 1037.19,445.169 1044.85,445.335 1052.5,446.5C 1034.35,464.487 1016.01,482.321 997.5,500C 1017.95,525.743 1038.29,551.576 1058.5,577.5C 1050.85,578.665 1043.19,578.831 1035.5,578C 1018.12,556.075 1000.62,534.242 983,512.5C 973,521.833 963,531.167 953,540.5C 952.5,553.162 952.333,565.829 952.5,578.5C 946.167,578.5 939.833,578.5 933.5,578.5C 933.5,516.167 933.5,453.833 933.5,391.5 Z"/></g>
<g><path style="opacity:0.947" fill="#002E74" d="M 1547.5,391.5 C 1553.5,391.5 1559.5,391.5 1565.5,391.5C 1565.5,453.833 1565.5,516.167 1565.5,578.5C 1559.5,578.5 1553.5,578.5 1547.5,578.5C 1547.67,570.493 1547.5,562.493 1547,554.5C 1534.97,571.259 1518.47,579.592 1497.5,579.5C 1455.55,576.213 1433.55,553.546 1431.5,511.5C 1432.16,477.318 1448.82,455.484 1481.5,446C 1505.26,440.894 1525.76,446.727 1543,463.5C 1544.33,465.5 1545.67,467.5 1547,469.5C 1547.5,443.502 1547.67,417.502 1547.5,391.5 Z M 1488.5,461.5 C 1518.58,458.097 1537.74,470.764 1546,499.5C 1550.36,520.737 1544.53,538.571 1528.5,553C 1503.7,567.981 1481.2,565.148 1461,544.5C 1446.77,521.963 1447.1,499.63 1462,477.5C 1469.43,469.708 1478.26,464.375 1488.5,461.5 Z"/></g>
<g><path style="opacity:0.939" fill="#002E74" d="M 794.5,402.5 C 826.833,402.5 859.167,402.5 891.5,402.5C 891.5,408.167 891.5,413.833 891.5,419.5C 864.833,419.5 838.167,419.5 811.5,419.5C 809.427,437.487 807.427,455.487 805.5,473.5C 823.963,472.816 842.296,473.983 860.5,477C 890.703,484.887 903.87,504.387 900,535.5C 895.76,557.742 882.593,571.576 860.5,577C 830.482,583.329 802.816,577.996 777.5,561C 775.981,559.649 774.648,558.149 773.5,556.5C 776.167,551.162 779.334,546.162 783,541.5C 797.837,555.409 815.504,562.076 836,561.5C 850.135,562.723 862.468,558.723 873,549.5C 883.055,536.175 884.055,522.175 876,507.5C 868.991,499.411 860.158,494.577 849.5,493C 843.87,492.034 838.204,491.367 832.5,491C 816.837,490.5 801.17,490.333 785.5,490.5C 788.763,461.202 791.763,431.869 794.5,402.5 Z"/></g>
<g><path style="opacity:0.927" fill="#002E74" d="M 429.5,403.5 C 435.833,403.5 442.167,403.5 448.5,403.5C 431.042,467.878 413.375,532.211 395.5,596.5C 388.833,596.5 382.167,596.5 375.5,596.5C 393.096,532.047 411.096,467.713 429.5,403.5 Z"/></g>
<g><path style="opacity:0.935" fill="#002E74" d="M 359.5,437.5 C 360.5,437.5 361.5,437.5 362.5,437.5C 362.831,445.528 362.498,453.528 361.5,461.5C 329.614,474.943 297.614,488.11 265.5,501C 297.5,514.333 329.5,527.667 361.5,541C 362.815,549.108 362.815,557.275 361.5,565.5C 320.616,547.558 279.616,529.891 238.5,512.5C 237.167,504.833 237.167,497.167 238.5,489.5C 279.039,472.391 319.372,455.057 359.5,437.5 Z"/></g>
<g><path style="opacity:0.937" fill="#002E74" d="M 461.5,437.5 C 502.891,454.632 544.224,471.966 585.5,489.5C 586.497,497.138 586.831,504.804 586.5,512.5C 544.843,529.743 503.343,547.41 462,565.5C 461.5,557.173 461.334,548.84 461.5,540.5C 493.585,527.636 525.585,514.469 557.5,501C 525.833,488 494.167,475 462.5,462C 461.518,453.919 461.184,445.752 461.5,437.5 Z"/></g>
<g><path style="opacity:0.929" fill="#002E74" d="M 1195.5,444.5 C 1213.74,442.727 1230.41,446.894 1245.5,457C 1250.32,460.817 1253.99,465.484 1256.5,471C 1252.55,474.646 1248.22,477.813 1243.5,480.5C 1227.59,461.77 1207.92,456.604 1184.5,465C 1165.21,474.551 1155.55,490.218 1155.5,512C 1155.9,535.383 1166.9,551.383 1188.5,560C 1210.32,566.176 1228.48,560.676 1243,543.5C 1248.06,545.9 1252.56,549.067 1256.5,553C 1248.03,566.767 1235.69,575.1 1219.5,578C 1190.39,583.016 1166.56,574.182 1148,551.5C 1134.66,528.711 1132.99,505.045 1143,480.5C 1154.45,459.689 1171.95,447.689 1195.5,444.5 Z"/></g>
<g><path style="opacity:0.934" fill="#002E74" d="M 1332.5,444.5 C 1361.25,441.8 1383.75,452.134 1400,475.5C 1413.15,501.207 1412.48,526.54 1398,551.5C 1379.92,574.31 1356.42,583.143 1327.5,578C 1293.45,569.25 1275.78,547.25 1274.5,512C 1276.29,474.184 1295.62,451.684 1332.5,444.5 Z M 1331.5,461.5 C 1367.68,458.75 1387.35,475.417 1390.5,511.5C 1387.73,546.105 1369.07,562.938 1334.5,562C 1313.56,557.729 1300.39,545.229 1295,524.5C 1290.2,501.893 1296.7,483.393 1314.5,469C 1320.03,465.894 1325.7,463.394 1331.5,461.5 Z"/></g>
<g><path style="opacity:0.935" fill="#002E74" d="M 1656.5,444.5 C 1697.26,442.608 1721.42,461.608 1729,501.5C 1729.5,506.823 1729.67,512.156 1729.5,517.5C 1692.83,517.5 1656.17,517.5 1619.5,517.5C 1622.41,543.243 1636.74,558.076 1662.5,562C 1681.3,564.344 1697.3,558.844 1710.5,545.5C 1715.46,548.926 1718.96,553.259 1721,558.5C 1705.2,574.434 1686.04,581.268 1663.5,579C 1619.38,572.618 1598.55,547.118 1601,502.5C 1606.13,470.205 1624.63,450.872 1656.5,444.5 Z M 1660.5,460.5 C 1689.38,460.711 1706.38,475.045 1711.5,503.5C 1680.83,503.5 1650.17,503.5 1619.5,503.5C 1622.65,479.017 1636.32,464.683 1660.5,460.5 Z"/></g>
</svg>
